<svg id="Capa_1" data-name="Capa 1" xmlns="http://www.w3.org/2000/svg" viewBox="0 0 1000 1000"><defs><style>.cls-1{fill:#fff;}</style></defs><path class="cls-1" d="M981.67,498.05C985,755.63,779.74,970.54,521.2,981.81,238.73,994.12,35.27,769.79,19.77,544.5c-9.62-139.88,27-263.86,122.54-368.41,82.46-90.25,183.74-145,306.09-155.94C589.6,7.47,716.22,43.68,822.24,140.81,927.4,237.13,981.9,356.39,981.67,498.05ZM495.4,898.17c210.21,7.2,399.27-169.39,404.19-389.27,5.14-229.29-183.31-406.73-392.81-409.56C285.62,96.35,100.71,277,100.11,499,99.53,710.79,275.57,899.11,495.4,898.17Z"/><path class="cls-1" d="M500.1,139.73c0,9.42-1,19,.22,28.24,2.22,16.38,6.17,32.52,8.76,48.87,3.57,22.6,6.63,45.29,9.73,68,.58,4.23,1,7.68,6.65,7.27,37.54-2.77,73.75-10.89,108.07-26.69a47.54,47.54,0,0,0,4.11-2.55c-6-14.59-11.64-29.28-17.94-43.7-4.39-10-9.78-19.64-14.39-29.59a19.92,19.92,0,0,0-15.49-12c-20.86-3.77-41.59-8.73-62.6-11-13.39-1.43-20.41-7.63-22.08-22.27a32.48,32.48,0,0,1,.11-8.84c3,9.95,9.4,13.76,19.44,14.58,45.87,3.71,89.87,14.74,131.17,35.54A351,351,0,0,1,780.46,290c32.1,42.85,54.21,90.43,63.3,143.28,19.34,112.48-6.69,213-82.11,299.62C723.22,777,675.9,808.47,621.18,829.07a30.46,30.46,0,0,0-11.72,8.25c-21.58,24.75-48.61,42.12-80,48.92-56.8,12.32-106.93-2.29-146.54-46.37a82.74,82.74,0,0,0-27.73-20.63c-84.91-39.12-145.79-101.79-180.68-188.62-33-82.14-34.74-165.72-4.74-248.89,31.47-87.26,89.16-152.41,172-194.88a333.58,333.58,0,0,1,128.05-36c9.07-.7,19.27,0,22.82-13.88a29.85,29.85,0,0,1-20.9,28.52c-6.26,1.85-13,2.13-19.42,3.41-15.06,3-30.23,5.64-45.05,9.56-4.3,1.14-9.15,5.37-11.08,9.44C386,209.5,376.6,231.52,366.84,253.33c-1.38,3.1-1.79,5.28,1.91,7.08,28.06,13.7,57.7,22.41,88.33,27.81,1.88.34,5.51-2.67,6.52-4.94,15.69-34.95,26.57-71.22,29.57-109.63.72-9.23,2.37-18.38,3.68-27.55.32-2.25,1-4.44,1.5-6.66ZM811.91,378.29c-3,1.48-4.59,2.08-6,3-35,21.95-71.44,41-110.82,54-5.22,1.71-5.24,5.08-5,9,2.42,38.59-.25,76.93-5.71,115.13-1.36,9.53-2.53,19.08-3.79,28.66a13.07,13.07,0,0,0,2.49.2c49.56-11.35,97.86-26.42,143.81-48.49,4.64-2.23,5.89-5.74,6.33-10.5,3.64-39.55-.41-78.41-10.5-116.68C819.78,401.36,815.77,390.41,811.91,378.29ZM304.17,578.06c0-3.25.13-5.16,0-7-3.53-45.13-3.11-90.19,3.35-135,1.14-7.92-2.74-10-8.88-12.05-28.76-9.42-57.18-19.69-82.82-36.27-8.14-5.26-16.39-10.35-25.19-15.9-1.24,2.88-2.28,5-3.12,7.25a349.35,349.35,0,0,0-22.36,136.92c.26,7.75,3,12.09,10,14.85,28.38,11.06,56.53,22.73,85,33.48C274.23,569.54,288.85,573.3,304.17,578.06Zm182.7-89c.35.8.57,1.05.52,1.24-1.14,4.48-2.44,8.92-3.45,13.43-6.27,28-4.68,54.29,15.21,77.17a147.52,147.52,0,0,1,13.41,18.29c3.56,5.66,8,7.49,14.61,7.28,41.76-1.31,83.27-4.85,124.38-12.58,14.2-2.67,14-2.46,15.89-15.45,6.22-42.65,7-85.54,5.77-128.51a58.38,58.38,0,0,0-.7-6.14c-19.58,4.12-38.35,8.23-57.2,11.93-5,1-6.53,3.89-7.68,8.2-9.18,34.51-26.11,64.44-52.61,88.73-13.42,12.31-30.38,21.73-34,43.94-12.08-19.36-21.2-37.46-25-57.94-3.06-16.55.08-31.19,11.15-44.41,7-8.38,12.62-17.94,18.78-27a50.15,50.15,0,0,0,2.79-5.76c-7.24,0-13.35.32-19.4-.08s-10.4,2-14.66,6.4c-10.34,10.73-21.3,20.85-32.38,31.58.39.32-.56-.13-1-.87-7.39-12.56-14.61-25.21-22.12-37.7-1.28-2.12-3.49-4.67-5.66-5.11-10.65-2.16-21.43-3.68-32-5.39-.51,1.46-.85,1.94-.78,2.36a10,10,0,0,0,.8,2.78c7.47,15.13,17.27,28.07,32.08,37.06C455.84,506,468,508.93,486.87,489.09Zm158.27,246c8.56-2.28,14.22-3.74,19.84-5.29,37.26-10.3,73.36-23.59,107.24-42.37A28.35,28.35,0,0,0,782,678c17.91-28.68,32.05-59.12,40.39-92,3.49-13.76,5.85-27.81,8.77-42-2,0-2.56-.16-3,0-2,.92-4,1.9-5.91,2.9-44.93,23.09-90.46,44.79-139.25,58.7-5.83,1.67-6.81,6.1-8.14,10.88-8.7,31.21-17.71,62.33-26.16,93.61C646.76,717.61,646.47,725.57,645.14,735.06Zm44.48-313.9c2.54-.45,4.44-.63,6.26-1.12,37.84-10.1,73.54-25.6,108.58-42.84,5.57-2.74,4.28-5.74,2.48-9.84A339.47,339.47,0,0,0,704.57,235.24c-5-3.89-7.94-3.52-12.43.19q-16.3,13.55-33.32,26.24c-4.49,3.37-5.19,6.46-3.16,11.73,11.94,31,21.29,62.72,26.55,95.55C684.94,386,687.08,403.12,689.62,421.16ZM167.16,529.53a43.2,43.2,0,0,0-.2,4.6c4.61,48.61,19.7,93.83,44.56,135.76,2.43,4.1,6.95,7.61,11.3,9.83a689.17,689.17,0,0,0,107.45,44.11c3,.95,6.18,1.63,10.42,2.73-1.12-3.72-1.6-5.85-2.39-7.85a492,492,0,0,1-30.59-117.88c-.94-7.33-4.12-11-11.32-13-39.88-11-78.48-25.13-112.94-48.8C178.53,535.63,173.11,533,167.16,529.53ZM309.7,414.2c.57-2.24,1.28-4.53,1.75-6.87,2.8-13.86,4.7-28,8.48-41.54,9-32.35,18.84-64.48,28.5-96.65,1.24-4.15,2.79-7.63-1.82-10.91-12.51-8.92-24.88-18.05-37.17-27.28-3.36-2.53-5.82-2.07-9,.32a334.83,334.83,0,0,0-97.24,113.55c-3.94,7.44-7.29,15.19-10.83,22.61C210,379.46,290.88,411.62,309.7,414.2ZM522.69,308c0,4.13-.12,7.27,0,10.39.88,19,1.73,38,2.74,57,1.13,21.19-.2,41.93-10.43,61.17-1.43,2.7-2.78,5.43-4.6,9,8.74,0,16.31.4,23.79-.23,2.56-.21,5.75-2.47,7.19-4.73,3.51-5.53,6.05-11.67,9.19-17.45,14.87-27.33,23.72-56,20.3-87.58-.69-6.3-1.78-12.56-2.68-18.84,21.7,37.7,33.83,78.42,40.23,122.07,20.4-4.18,40.19-8.09,59.85-12.54,1.43-.32,3.14-4.68,2.78-6.83-5.76-34.33-11.43-68.68-18.05-102.85-2.61-13.48-7.52-26.52-11.86-41.4C604.27,298.06,564.7,306,522.69,308ZM346.07,700.34h71.76c22.69,0,45.39,0,68.08-.09,3.34,0,8.37,1.14,7.69-4.83-1.48-12.95-1.33-26.14-7.84-38.28-3.12-5.83-4.39-12.8-5.65-19.42-.91-4.79,1.5-11.9-1-14.28-3.27-3.06-10-2.43-15.24-3.36-1-.17-1.95-.12-2.91-.26-36.1-5.61-72.21-11.13-108.28-16.91-9-1.45-17.93-3.75-29.35-6.19C331.11,632.31,338.54,666.11,346.07,700.34Zm53.71-383.62,2.33,1.2c-.51,2.33-.48,5-1.61,6.93-19.57,33.75-19.68,69.07-8.61,105.26.68,2.23,2.7,5.33,4.57,5.7,10.61,2.13,21.36,3.56,33.23,5.4-1.25-5.84-1.94-10.14-3.1-14.3-7.07-25.33-4.79-49.23,7.67-72.89,8.55-16.25,14.22-34,20.79-50.12l-94-32.61a15,15,0,0,0-1.23,2.69c-5.91,18.56-12.78,36.89-17.41,55.77-6.65,27.16-11.74,54.71-17.22,82.15-.47,2.35.36,6.65,1.87,7.37,4.65,2.23,9.91,3.16,15.44,4.74,3.51-21.82,9.08-41.7,19.09-60.06C371.49,345.82,382.77,328.82,399.78,316.72Zm96.57,382.9a11.55,11.55,0,0,0,2.14.6c44.63,0,89.26-.12,133.89,0,5,0,6.76-2.53,7.91-6.75,5.48-19.94,11.26-39.8,16.59-59.79,1.84-6.87,2.67-14,3.89-20.69L534.64,625.82a18.61,18.61,0,0,0,0,3.07c2.67,18.4-4.79,31.67-20.57,40.74-.84.49-2.05.78-2.45,1.52C506.57,680.42,501.61,689.77,496.35,699.62Zm-173-266.45a47,47,0,0,0-1.21,5.26c-5,46-4,92.06,0,138.1.38,4.49,2.44,6.19,6.76,6.91,37.24,6.21,74.43,12.72,111.68,18.89,7.2,1.2,14.57,1.31,21.87,1.93l.69-2.11c-4.44-2.78-8.66-6-13.36-8.27C436.13,587.36,422.42,581,408.54,575a85.72,85.72,0,0,1-39.89-34.15c-17.13-27.32-25.7-57.13-27.26-89.18C340.64,436.4,340.45,436.41,323.36,433.17Zm34.49,369.4a161.65,161.65,0,0,1-11.55-57.33c-.06-2.11-3.37-5.34-5.73-6-36.24-9.85-70.11-25-102.23-44.34-3.69-2.21-7.67-4-11.51-5.92C259.31,739.14,303,775.74,357.85,802.57Zm273.74,3.89c55.49-24.2,99.85-59.21,133.78-107.21a22.6,22.6,0,0,0-6.69,2.68c-16.19,9-31.87,19.16-48.69,26.79-18.35,8.31-37.66,14.55-56.75,21.11-5.75,2-8.56,4.29-9.35,10.79-1.14,9.36-3.93,18.54-6.35,27.71C636.07,793.91,634,799.31,631.59,806.46ZM467.86,819.64c0-6,0-12.28,0-18.54.05-14.19.06-14.19,14.42-14.28,17.18-.11,26.67-8.16,29.54-25.05,2.37-14-9.38-29-23.4-29.54-10.23-.36-20.49.21-30.72-.2-5.91-.24-7.43,2-7.37,7.61.25,22.44.08,44.89.12,67.33C450.49,822.4,451.21,822.94,467.86,819.64ZM583,750.44c.5-3.65.67-6.8,1.4-9.8,1.39-5.66-1.21-7.9-6.4-9.06-32.73-7.32-60.47,18.42-55.45,51.59,4.28,28.27,30.4,44.75,58,36.81,5-1.44,6.89-4,5.78-9-.67-3-1-6.15-1.26-7.5-10.79-1.06-21.3-.26-30.4-3.47-10.6-3.74-14.87-14.28-13.53-25.2.81-6.62,3.44-14.07,7.73-19C557.91,745.46,570.59,748.43,583,750.44Zm24-567.38c14.48,25.17,27.73,48.32,41.26,71.31.69,1.17,4.4,1.9,5.75,1.15,11.44-6.45,22.84-13,33.88-20.11,7.66-4.94,7.72-7.74-.46-12.47q-27.13-15.66-55-30C624.91,189.09,616.65,186.76,607,183.06Zm-214.33,1.59-1.55-1.34c-29.29,10.29-57,23.54-83.47,43l46.17,27.44Zm36.07,547.86c-2.37-.17-3.82-.33-5.27-.37-11.38-.27-11.4-.26-11.39,11.46q0,34.41.11,68.83c0,2.55.41,5.1.61,7.44h15.94Z"/><path class="cls-1" d="M468.6,749.11c5.5,0,10.3-.19,15.09,0,6.46.31,9.66,3.92,9.55,10.39-.12,6.75-3.33,9.9-10.57,10.14-3.88.13-7.78,0-11.66-.06a10.89,10.89,0,0,1-2.41-.74Z"/></svg>